# Blender v2.79 (sub 0) OBJ File: ''
# www.blender.org
mtllib star.mtl
o Star
v 0.776793 0.031447 -0.243291
v 0.194898 0.027785 -0.260942
v 0.000001 0.200800 0.002013
v 0.309432 0.024845 0.103777
v 0.472497 0.020258 0.662629
v -0.002047 0.020544 0.325382
v -0.483162 0.014047 0.653124
v -0.309083 0.020825 0.097624
v -0.769497 0.021397 -0.258675
v -0.187365 0.025301 -0.264744
v 0.009201 0.032151 -0.812690
v -0.011647 0.018836 -0.004147
vt 0.803081 0.007746
vt 0.705421 0.374936
vt 0.510111 0.441346
vt 0.510111 0.218686
vt 0.209331 0.007746
vt 0.303081 0.374936
vt 0.021831 0.613216
vt 0.369481 0.621036
vt 0.510111 0.976496
vt 0.654641 0.621036
vt 0.986671 0.613216
vt 0.510111 0.441346
vn 0.0112 0.8391 -0.5438
vn 0.3239 0.8311 0.4520
vn 0.5249 0.8385 -0.1463
vn -0.3256 0.8268 0.4588
vn 0.3056 0.8309 0.4651
vn -0.5327 0.8316 -0.1568
vn -0.3436 0.8268 0.4454
vn -0.0113 0.8390 -0.5440
vn -0.5256 0.8319 -0.1781
vn 0.5182 0.8387 -0.1678
vn 0.0072 -0.9996 -0.0291
vn 0.0173 -0.9998 0.0043
vn 0.0238 -0.9996 -0.0151
vn -0.0044 -1.0000 0.0053
vn 0.0167 -0.9998 0.0047
vn -0.0122 -0.9998 -0.0160
vn -0.0050 -1.0000 0.0049
vn 0.0064 -0.9996 -0.0291
vn -0.0119 -0.9998 -0.0168
vn 0.0236 -0.9996 -0.0159
usemtl Star_Material
s off
f 1/1/1 2/2/1 3/3/1
f 4/4/2 1/1/2 3/3/2
f 5/5/3 4/4/3 3/3/3
f 6/6/4 5/5/4 3/3/4
f 7/7/5 6/6/5 3/3/5
f 8/8/6 7/7/6 3/3/6
f 9/9/7 8/8/7 3/3/7
f 10/10/8 9/9/8 3/3/8
f 11/11/9 10/10/9 3/3/9
f 2/2/10 11/11/10 3/3/10
f 2/2/11 1/1/11 12/12/11
f 1/1/12 4/4/12 12/12/12
f 4/4/13 5/5/13 12/12/13
f 5/5/14 6/6/14 12/12/14
f 6/6/15 7/7/15 12/12/15
f 7/7/16 8/8/16 12/12/16
f 8/8/17 9/9/17 12/12/17
f 9/9/18 10/10/18 12/12/18
f 10/10/19 11/11/19 12/12/19
f 11/11/20 2/2/20 12/12/20
