# Blender v2.79 (sub 0) OBJ File: ''
# www.blender.org
mtllib turtle.mtl
o Turtle-Mesh
v 1.901382 0.826125 0.753991
v 1.290704 0.227994 -0.316942
v 1.620134 0.839334 -0.638126
v 0.066653 1.279283 -1.100990
v 0.005336 0.332658 -0.745118
v -1.530961 1.037111 -0.606295
v -1.274153 0.388977 -0.291032
v -1.783583 1.057412 0.791216
v -1.460989 0.705930 0.835664
v -1.198675 1.456352 2.572930
v -0.986663 0.997000 2.329151
v 0.099011 1.702907 2.755047
v 0.088877 1.272130 2.816382
v 1.406912 1.292812 2.546610
v 1.134272 0.863879 2.307727
v 1.538335 0.517677 0.805366
v 0.935127 0.150587 0.869783
v 0.792838 0.127312 0.194628
v -0.000598 0.083402 0.216139
v -0.000205 0.137421 -0.080710
v -0.782588 0.226193 0.210543
v 0.896338 1.818496 -0.067375
v 0.103206 1.827166 -0.342504
v -0.679088 1.917378 -0.051460
v -0.799476 2.024161 0.633143
v -0.514293 2.088061 1.646708
v 0.144002 2.066695 2.207698
v 0.788380 2.006298 1.633549
v 1.042885 1.908525 0.614531
v -0.907235 0.266223 0.888393
v -0.613070 0.476628 1.880686
v 0.052801 0.584288 2.390053
v 0.689602 0.394866 1.867527
v 0.032544 0.342396 1.887661
v 0.008223 0.115055 0.892642
v 0.132236 2.138166 0.598888
v -0.526899 0.841480 2.155934
v -1.074435 0.841922 2.086198
v -0.660244 1.003594 1.949180
v -0.670904 1.234968 2.106928
v -1.088078 1.066932 2.289476
v -0.548871 1.297356 2.473780
v -0.964190 1.119539 2.720179
v -0.272924 1.139953 2.718983
v -0.686982 1.022413 2.860198
v -0.411835 0.899589 2.498006
v -0.770005 0.745761 2.710151
v -0.893775 0.693129 2.279326
v -1.143974 0.562167 2.314270
v -1.422771 0.654099 2.338525
v -1.216325 0.508567 2.907146
v -1.569265 0.559608 3.014810
v -1.349797 0.659578 3.490152
v -1.410644 0.882130 2.917330
v -1.220201 0.859869 3.423597
v -0.943369 1.006333 3.326258
v -0.711143 0.999891 3.185143
v -0.836109 0.800223 3.320624
v -1.113070 0.653648 3.417983
v -1.025610 0.758684 3.595221
v -0.658374 0.379687 -0.290679
v -0.703138 0.932927 -1.038704
v -0.451105 0.534686 -0.604192
v -0.637021 0.764538 -0.568193
v -0.864814 0.950748 -0.743712
v -1.051756 0.810591 -0.426099
v -1.289696 0.723331 -0.714241
v -1.247845 0.624741 -0.320336
v -1.303462 0.415531 -0.646449
v -1.062335 0.433218 -0.092548
v -1.122054 0.385898 -0.902679
v -0.697164 0.613434 -0.932167
v -0.797878 0.716906 -1.207201
v -0.962210 0.931849 -1.267294
v -1.296933 0.546949 -1.346853
v -1.502195 0.796583 -1.505427
v -1.847161 0.476586 -1.271255
v -1.856532 0.730989 -1.405446
v -2.133025 0.447200 -0.974280
v -2.137701 0.605807 -1.041268
v -2.198777 0.489797 -0.702099
v -2.126782 0.658662 -0.877743
v -2.112602 0.562063 -0.667197
v -1.814668 0.638446 -0.782521
v -1.805297 0.384044 -0.648330
v 1.168973 0.253559 -0.911270
v 1.729668 0.272564 -0.905753
v 1.343965 0.286778 -0.650963
v 1.744046 0.330276 -0.624172
v 2.102116 0.300480 -0.693773
v 2.112143 0.339282 -0.508686
v 2.258075 0.396106 -0.619944
v 2.195221 0.487604 -0.592028
v 2.252008 0.572655 -0.800405
v 1.962595 0.693656 -1.091639
v 1.948095 0.635953 -1.373218
v 1.572022 0.642248 -1.513568
v 1.358234 0.400440 -1.354359
v 0.858830 0.582302 -1.232414
v 0.749156 0.487505 -0.957672
v 0.763492 0.804124 -1.072038
v 0.486198 0.475857 -0.613660
v 0.917757 0.826723 -0.773351
v 0.700079 0.680614 -0.581700
v 1.337576 0.592796 -0.726828
v 1.120092 0.674275 -0.448039
v 1.293494 0.465234 -0.346009
v 1.090117 0.298119 -0.114292
v 0.678728 0.295764 -0.304186
v 0.803657 0.911712 1.934392
v 1.003137 0.574070 2.260164
v 0.655279 0.767281 2.143992
v 0.555289 0.838888 2.488235
v 0.895613 0.641219 2.693325
v 0.451995 1.094454 2.711659
v 0.850865 0.925890 2.844663
v 0.740466 1.216429 2.460756
v 1.135168 0.987774 2.698972
v 0.846335 1.139738 2.091601
v 1.242815 0.920634 2.265929
v 1.197180 0.699345 2.063252
v 1.235652 0.412809 2.290232
v 1.312769 0.349828 2.881597
v 1.671295 0.356214 2.982075
v 1.320569 0.502768 3.345952
v 1.557585 0.478963 3.413334
v 1.237552 0.633256 3.437548
v 1.452734 0.693970 3.349147
v 1.194605 0.874011 3.257211
v 1.552312 0.696162 2.887398
v 1.475206 0.759365 2.295879
v 0.285825 1.231586 -0.264025
v 0.054380 1.179867 -1.154070
v 0.070950 1.301563 -0.269991
v -0.209840 1.139822 -1.144227
v -0.207535 1.249155 -1.595391
v -0.427303 0.721630 -1.457763
v -0.212728 1.183787 -2.024305
v -0.432750 0.654476 -1.900776
v -0.211706 0.637040 -2.177655
v -0.251069 0.306476 -1.935020
v 0.020178 0.590991 -2.251744
v -0.021767 0.244891 -1.994980
v 0.236339 0.608920 -2.182181
v 0.238919 0.275722 -1.939970
v 0.463337 0.598233 -1.909828
v 0.468784 0.665386 -1.466815
v 0.308777 1.151054 -2.029573
v 0.313970 1.216422 -1.600658
v 0.058911 1.325405 -1.609877
v 0.960603 0.896831 3.120808
v 1.062327 0.682935 3.254000
v -1.823887 0.319399 -0.928171
v -2.118769 0.350723 -0.763639
v -0.965519 1.054357 -1.018644
v -1.464566 0.884519 -1.158314
v -1.837778 0.795677 -1.125634
v 1.028441 0.792866 -1.293483
v 1.526827 0.739539 -1.170020
v 1.870065 0.555193 -0.752141
v -0.150825 1.258993 -0.259614
v -0.329611 0.896548 -0.127153
v -0.170587 0.674978 0.099333
v -0.244133 0.383980 -1.409079
v -0.005314 0.268155 -1.398810
v 1.822085 0.411171 -1.245145
v 2.236561 0.525678 -0.965308
v 1.027432 0.921521 -1.048093
v 0.245854 0.353227 -1.414029
v 0.239636 0.649230 0.095189
v 0.420523 0.849465 -0.134731
v 0.055790 1.224824 -2.011757
v 1.524184 0.469133 2.308755
v -1.338159 0.935945 2.324297
v -2.106628 0.394317 -0.579851
v 2.158903 0.385531 -0.902149
v 0.311666 1.107089 -1.149494
v 0.029552 0.580994 0.109038
vt 0.408000 0.694000
vt 0.507000 0.835000
vt 0.445000 0.892000
vt 0.660000 0.974000
vt 0.660000 0.889000
vt 0.445000 0.892000
vt 0.507000 0.835000
vt 0.408000 0.694000
vt 0.481000 0.690000
vt 0.482000 0.431000
vt 0.534000 0.499000
vt 0.660000 0.302000
vt 0.660000 0.403000
vt 0.482000 0.431000
vt 0.534000 0.499000
vt 0.481000 0.690000
vt 0.550000 0.690000
vt 0.566000 0.775000
vt 0.660000 0.775000
vt 0.660000 0.810000
vt 0.566000 0.775000
vt 0.014000 0.560000
vt 0.067000 0.840000
vt 0.223000 0.700000
vt 0.379000 0.758000
vt 0.379000 0.956000
vt 0.223000 0.700000
vt 0.067000 0.840000
vt 0.197000 0.560000
vt 0.014000 0.560000
vt 0.250000 0.354000
vt 0.121000 0.189000
vt 0.379000 0.240000
vt 0.379000 0.006000
vt 0.250000 0.354000
vt 0.121000 0.189000
vt 0.197000 0.560000
vt 0.550000 0.690000
vt 0.582000 0.563000
vt 0.660000 0.497000
vt 0.582000 0.563000
vt 0.660000 0.563000
vt 0.660000 0.690000
vt 0.379000 0.560000
vt 0.862000 0.951000
vt 0.780000 0.961000
vt 0.842000 0.977000
vt 0.861000 0.953000
vt 0.803000 0.934000
vt 0.877000 0.900000
vt 0.820000 0.871000
vt 0.895000 0.865000
vt 0.835000 0.848000
vt 0.878000 0.901000
vt 0.820000 0.872000
vt 0.803000 0.934000
vt 0.756000 0.931000
vt 0.727000 0.928000
vt 0.739000 0.846000
vt 0.701000 0.833000
vt 0.734000 0.688000
vt 0.738000 0.845000
vt 0.763000 0.696000
vt 0.799000 0.710000
vt 0.832000 0.727000
vt 0.798000 0.709000
vt 0.762000 0.696000
vt 0.765000 0.641000
vt 0.959000 0.660000
vt 0.854000 0.669000
vt 0.919000 0.689000
vt 0.928000 0.660000
vt 0.886000 0.649000
vt 0.948000 0.599000
vt 0.889000 0.579000
vt 0.959000 0.572000
vt 0.915000 0.557000
vt 0.987000 0.601000
vt 0.889000 0.579000
vt 0.886000 0.649000
vt 0.842000 0.643000
vt 0.817000 0.636000
vt 0.818000 0.568000
vt 0.778000 0.558000
vt 0.825000 0.437000
vt 0.793000 0.437000
vt 0.866000 0.295000
vt 0.848000 0.295000
vt 0.900000 0.257000
vt 0.866000 0.295000
vt 0.899000 0.295000
vt 0.879000 0.437000
vt 0.911000 0.437000
vt 0.889000 0.579000
vt 0.879000 0.437000
vt 0.915000 0.557000
vt 0.911000 0.437000
vt 0.899000 0.295000
vt 0.920000 0.295000
vt 0.900000 0.257000
vt 0.899000 0.295000
vt 0.866000 0.295000
vt 0.825000 0.437000
vt 0.793000 0.437000
vt 0.778000 0.558000
vt 0.818000 0.568000
vt 0.842000 0.643000
vt 0.886000 0.649000
vt 0.854000 0.669000
vt 0.919000 0.689000
vt 0.886000 0.649000
vt 0.928000 0.660000
vt 0.889000 0.579000
vt 0.948000 0.599000
vt 0.959000 0.572000
vt 0.987000 0.601000
vt 0.959000 0.660000
vt 0.842000 0.977000
vt 0.803000 0.934000
vt 0.862000 0.951000
vt 0.878000 0.901000
vt 0.820000 0.872000
vt 0.895000 0.865000
vt 0.835000 0.848000
vt 0.877000 0.900000
vt 0.820000 0.871000
vt 0.861000 0.953000
vt 0.803000 0.934000
vt 0.780000 0.961000
vt 0.756000 0.931000
vt 0.739000 0.846000
vt 0.701000 0.833000
vt 0.762000 0.696000
vt 0.734000 0.688000
vt 0.765000 0.641000
vt 0.763000 0.696000
vt 0.799000 0.710000
vt 0.738000 0.845000
vt 0.756000 0.930000
vt 0.807000 0.080000
vt 0.669000 0.037000
vt 0.807000 0.037000
vt 0.669000 0.080000
vt 0.602000 0.054000
vt 0.612000 0.139000
vt 0.496000 0.054000
vt 0.504000 0.139000
vt 0.439000 0.139000
vt 0.492000 0.190000
vt 0.392000 0.144000
vt 0.482000 0.231000
vt 0.439000 0.139000
vt 0.492000 0.190000
vt 0.504000 0.139000
vt 0.612000 0.139000
vt 0.496000 0.054000
vt 0.602000 0.054000
vt 0.602000 0.006000
vt 0.832000 0.727000
vt 0.798000 0.709000
vt 0.879000 0.437000
vt 0.899000 0.295000
vt 0.842000 0.643000
vt 0.818000 0.568000
vt 0.825000 0.437000
vt 0.817000 0.636000
vt 0.818000 0.568000
vt 0.879000 0.437000
vt 0.807000 0.080000
vt 0.818000 0.139000
vt 0.848000 0.176000
vt 0.614000 0.190000
vt 0.614000 0.229000
vt 0.825000 0.437000
vt 0.848000 0.295000
vt 0.842000 0.643000
vt 0.614000 0.190000
vt 0.848000 0.176000
vt 0.818000 0.139000
vt 0.485000 0.006000
vt 0.727000 0.928000
vt 0.756000 0.930000
vt 0.920000 0.295000
vt 0.866000 0.295000
vt 0.669000 0.080000
vt 0.848000 0.205000
vn 0.9936 -0.0928 0.0652
vn 0.4298 -0.8066 -0.4058
vn 0.7298 0.0174 -0.6834
vn 0.0455 0.2935 -0.9549
vn -0.0257 -0.6964 -0.7172
vn -0.7538 0.1095 -0.6479
vn -0.5461 -0.7642 -0.3431
vn -0.9937 0.0323 0.1075
vn -0.6744 -0.7089 0.2067
vn -0.6550 0.1712 0.7360
vn -0.4587 -0.6232 0.6334
vn 0.0054 0.5416 0.8406
vn -0.0912 -0.2195 0.9713
vn 0.7123 0.1121 0.6928
vn 0.3959 -0.7084 0.5844
vn 0.5974 -0.7761 0.2021
vn 0.2956 -0.9386 0.1776
vn 0.0979 -0.9936 -0.0560
vn -0.0632 -0.9956 -0.0690
vn -0.0633 -0.9734 -0.2202
vn -0.2987 -0.9541 -0.0216
vn 0.4321 0.7970 -0.4221
vn 0.0889 0.8579 -0.5061
vn -0.3226 0.8662 -0.3817
vn -0.4568 0.8877 -0.0581
vn -0.3342 0.9325 0.1371
vn 0.1226 0.9134 0.3881
vn 0.4172 0.8945 0.1607
vn 0.5643 0.8193 -0.1016
vn -0.4336 -0.8894 0.1447
vn -0.3669 -0.8228 0.4340
vn -0.0299 -0.6724 0.7396
vn 0.2694 -0.8625 0.4285
vn -0.0558 -0.9425 0.3296
vn -0.0605 -0.9876 0.1446
vn 0.0608 0.9897 -0.1300
vn 0.2574 -0.9052 -0.3383
vn -0.3100 -0.1221 -0.9429
vn -0.2533 -0.1596 -0.9541
vn -0.4648 0.7871 -0.4055
vn -0.4789 0.8142 -0.3281
vn -0.2202 0.9320 0.2880
vn -0.2538 0.9493 0.1855
vn 0.3141 0.0735 0.9465
vn 0.6869 0.4007 0.6063
vn 0.4653 -0.8219 0.3286
vn 0.5948 -0.7860 0.1685
vn 0.3152 -0.8768 -0.3631
vn 0.0451 -0.9025 -0.4284
vn -0.7689 -0.4063 -0.4937
vn 0.1450 -0.9887 0.0392
vn -0.8726 -0.4636 0.1541
vn -0.6031 -0.3197 0.7308
vn -0.7107 0.6956 0.1057
vn -0.4776 0.7303 0.4884
vn 0.0326 0.8841 0.4662
vn 0.8258 0.4701 0.3117
vn 0.7657 -0.5460 0.3400
vn 0.2889 -0.9126 0.2895
vn 0.2731 -0.1241 0.9540
vn 0.1106 -0.9738 -0.1988
vn 0.7922 0.5436 -0.2774
vn 0.0653 -0.7165 -0.6945
vn 0.6044 0.7517 0.2637
vn 0.1023 0.9305 0.3517
vn -0.3592 0.8885 0.2858
vn -0.5158 0.6936 0.5029
vn -0.9386 0.0656 0.3386
vn -0.3871 -0.7804 0.4910
vn -0.3650 -0.9130 0.1821
vn 0.2056 -0.9536 -0.2199
vn 0.8223 -0.4765 -0.3112
vn 0.6353 -0.2951 -0.7136
vn 0.3137 0.5410 -0.7803
vn 0.2491 -0.6396 -0.7273
vn -0.0722 0.3437 -0.9363
vn -0.2938 -0.6942 -0.6571
vn -0.5276 0.3342 -0.7810
vn -0.7315 -0.5467 -0.4074
vn -0.8685 0.2663 -0.4181
vn -0.9543 0.0582 0.2931
vn -0.5971 0.7873 0.1537
vn -0.2762 0.6635 0.6954
vn -0.0549 0.7357 0.6751
vn 0.1149 -0.4627 0.8790
vn -0.2150 -0.9666 -0.1396
vn 0.0957 -0.9874 -0.1257
vn 0.0274 -0.7302 0.6826
vn -0.0571 -0.4343 0.8990
vn 0.2803 -0.9598 -0.0137
vn 0.1200 -0.3725 0.9202
vn 0.8854 -0.3126 0.3440
vn 0.3319 0.6255 0.7061
vn 0.7277 0.6690 0.1513
vn 0.2520 0.9670 0.0361
vn 0.5452 0.2942 -0.7850
vn 0.1586 0.2472 -0.9559
vn -0.1340 -0.7269 -0.6736
vn -0.6388 -0.3044 -0.7066
vn -0.6372 -0.6323 -0.4406
vn -0.7518 0.5730 -0.3264
vn -0.7756 -0.4945 -0.3923
vn -0.0664 0.8787 0.4727
vn -0.4410 0.8975 -0.0059
vn 0.3680 0.6929 0.6201
vn 0.4872 0.8710 -0.0634
vn 0.9662 -0.2576 0.0072
vn 0.2200 -0.9734 -0.0643
vn 0.0069 -0.9597 -0.2809
vn 0.2512 -0.1810 -0.9508
vn -0.4325 -0.8298 -0.3526
vn -0.3748 -0.8690 -0.3231
vn -0.5875 -0.7717 0.2437
vn -0.6555 -0.7199 0.2279
vn -0.3376 0.1821 0.9235
vn -0.5262 0.4192 0.7399
vn 0.3510 0.8910 0.2881
vn 0.3665 0.9155 0.1661
vn 0.5788 0.7012 -0.4163
vn 0.5585 0.7524 -0.3492
vn 0.2663 -0.1429 -0.9532
vn -0.1772 -0.8823 -0.4361
vn -0.3004 -0.9476 0.1086
vn 0.8029 -0.5815 0.1309
vn -0.3794 -0.8126 0.4425
vn 0.5945 -0.3666 0.7156
vn -0.3459 -0.0601 0.9363
vn 0.5671 0.6320 0.5281
vn 0.0749 0.8425 0.5335
vn 0.8124 0.5820 0.0350
vn 0.7796 0.4788 -0.4036
vn 0.7093 0.7004 -0.0796
vn 0.0648 0.9955 0.0688
vn 0.0645 0.9891 -0.1323
vn -0.6240 0.7801 0.0443
vn -0.6277 0.7768 0.0503
vn -0.9977 -0.0301 0.0603
vn -0.5196 0.6217 -0.5861
vn -0.9609 -0.0783 -0.2655
vn -0.5193 -0.0760 -0.8512
vn -0.6135 -0.7277 -0.3066
vn -0.0141 -0.1761 -0.9843
vn -0.0730 -0.8812 -0.4671
vn 0.5107 -0.1740 -0.8420
vn 0.5033 -0.8021 -0.3216
vn 0.9403 -0.1973 -0.2772
vn 0.9869 -0.1541 0.0468
vn 0.5998 0.5630 -0.5686
vn 0.7191 0.6937 0.0420
vn 0.0623 0.9967 0.0520
vn -0.6765 0.5585 0.4801
vn -0.7836 -0.3613 0.5053
vn -0.0552 -0.9884 -0.1413
vn -0.5074 -0.8617 -0.0052
vn 0.0077 0.9996 0.0276
vn -0.2722 0.9592 0.0767
vn -0.3309 0.9414 0.0657
vn -0.2508 0.5916 -0.7662
vn 0.1879 0.9820 0.0184
vn -0.0358 0.8008 0.5979
vn -0.6202 0.7821 -0.0605
vn -0.9859 -0.1404 0.0908
vn -0.6258 -0.7599 0.1755
vn -0.6914 -0.7084 0.1420
vn -0.0608 -0.9855 0.1587
vn 0.2810 -0.7761 -0.5645
vn 0.8936 0.0304 -0.4479
vn 0.0256 0.9996 -0.0152
vn 0.5995 -0.7893 0.1327
vn 0.5293 -0.8324 0.1639
vn 0.9623 -0.2627 0.0712
vn 0.0346 0.7711 -0.6358
vn 0.7222 -0.4693 -0.5081
vn -0.7107 0.5796 -0.3987
vn -0.3117 -0.3728 0.8740
vn 0.5472 -0.7508 -0.3699
vn 0.7162 0.6971 0.0329
vn -0.0593 -0.9772 0.2041
usemtl Turtle_Material
s 1
f 1/1/1 2/2/2 3/3/3
f 3/3/3 2/2/2 4/4/4
f 2/2/2 5/5/5 4/4/4
f 4/4/4 5/5/5 6/6/6
f 5/5/5 7/7/7 6/6/6
f 6/6/6 7/7/7 8/8/8
f 7/7/7 9/9/9 8/8/8
f 8/8/8 9/9/9 10/10/10
f 9/9/9 11/11/11 10/10/10
f 10/10/10 11/11/11 12/12/12
f 11/11/11 13/13/13 12/12/12
f 12/12/12 13/13/13 14/14/14
f 13/13/13 15/15/15 14/14/14
f 14/14/14 15/15/15 1/1/1
f 15/15/15 16/16/16 1/1/1
f 1/1/1 16/16/16 2/2/2
f 16/16/16 17/17/17 2/2/2
f 2/2/2 17/17/17 18/18/18
f 17/17/17 19/19/19 18/18/18
f 18/18/18 19/19/19 20/20/20
f 19/19/19 21/21/21 20/20/20
f 20/20/20 21/21/21 7/7/7
f 21/21/21 9/9/9 7/7/7
f 1/22/1 3/23/3 22/24/22
f 22/24/22 3/23/3 23/25/23
f 3/23/3 4/26/4 23/25/23
f 23/25/23 4/26/4 24/27/24
f 4/26/4 6/28/6 24/27/24
f 24/27/24 6/28/6 25/29/25
f 6/28/6 8/30/8 25/29/25
f 25/29/25 8/30/8 26/31/26
f 8/30/8 10/32/10 26/31/26
f 26/31/26 10/32/10 27/33/27
f 10/32/10 12/34/12 27/33/27
f 27/33/27 12/34/12 28/35/28
f 12/34/12 14/36/14 28/35/28
f 28/35/28 14/36/14 29/37/29
f 14/36/14 1/22/1 29/37/29
f 29/37/29 1/22/1 22/24/22
f 21/21/21 30/38/30 9/9/9
f 9/9/9 30/38/30 11/11/11
f 30/38/30 31/39/31 11/11/11
f 11/11/11 31/39/31 13/13/13
f 31/39/31 32/40/32 13/13/13
f 13/13/13 32/40/32 33/41/33
f 32/40/32 34/42/34 33/41/33
f 33/41/33 34/42/34 35/43/35
f 34/42/34 31/39/31 35/43/35
f 35/43/35 31/39/31 30/38/30
f 15/15/15 33/41/33 16/16/16
f 16/16/16 33/41/33 17/17/17
f 33/41/33 35/43/35 17/17/17
f 17/17/17 35/43/35 19/19/19
f 35/43/35 30/38/30 19/19/19
f 19/19/19 30/38/30 21/21/21
f 22/24/22 36/44/36 29/37/29
f 29/37/29 36/44/36 28/35/28
f 36/44/36 27/33/27 28/35/28
f 18/18/18 20/20/20 2/2/2
f 20/20/20 5/5/5 2/2/2
f 7/7/7 5/5/5 20/20/20
f 25/29/25 36/44/36 24/27/24
f 24/27/24 36/44/36 23/25/23
f 36/44/36 22/24/22 23/25/23
f 27/33/27 36/44/36 26/31/26
f 26/31/26 36/44/36 25/29/25
f 31/39/31 34/42/34 32/40/32
f 15/15/15 13/13/13 33/41/33
f 37/45/37 38/46/38 39/47/39
f 39/47/39 38/46/38 40/48/40
f 38/46/38 41/49/41 40/48/40
f 40/48/40 41/49/41 42/50/42
f 41/49/41 43/51/43 42/50/42
f 42/50/42 43/51/43 44/52/44
f 43/51/43 45/53/45 44/52/44
f 44/52/44 45/53/45 46/54/46
f 45/53/45 47/55/47 46/54/46
f 46/54/46 47/55/47 37/45/37
f 47/55/47 48/56/48 37/45/37
f 37/45/37 48/56/48 38/46/38
f 48/56/48 49/57/49 38/46/38
f 38/46/38 49/57/49 50/58/50
f 49/57/49 51/59/51 50/58/50
f 50/58/50 51/59/51 52/60/52
f 51/59/51 53/61/53 52/60/52
f 52/60/52 53/61/53 54/62/54
f 53/61/53 55/63/55 54/62/54
f 54/62/54 55/63/55 43/51/43
f 55/63/55 56/64/56 43/51/43
f 43/51/43 56/64/56 45/53/45
f 56/64/56 57/65/57 45/53/45
f 45/53/45 57/65/57 47/55/47
f 57/65/57 58/66/58 47/55/47
f 47/55/47 58/66/58 51/59/51
f 58/66/58 59/67/59 51/59/51
f 51/59/51 59/67/59 53/61/53
f 59/67/59 60/68/60 53/61/53
f 53/61/53 60/68/60 55/63/55
f 60/68/60 56/64/56 55/63/55
f 61/69/61 62/70/62 63/71/63
f 63/71/63 62/70/62 64/72/64
f 62/70/62 65/73/65 64/72/64
f 64/72/64 65/73/65 66/74/66
f 65/73/65 67/75/67 66/74/66
f 66/74/66 67/75/67 68/76/68
f 67/75/67 69/77/69 68/76/68
f 68/76/68 69/77/69 70/78/70
f 69/77/69 71/79/71 70/78/70
f 70/78/70 71/79/71 61/69/61
f 71/79/71 72/80/72 61/69/61
f 61/69/61 72/80/72 62/70/62
f 72/80/72 73/81/73 62/70/62
f 62/70/62 73/81/73 74/82/74
f 73/81/73 75/83/75 74/82/74
f 74/82/74 75/83/75 76/84/76
f 75/83/75 77/85/77 76/84/76
f 76/84/76 77/85/77 78/86/78
f 77/85/77 79/87/79 78/86/78
f 78/86/78 79/87/79 80/88/80
f 79/87/79 81/89/81 80/88/80
f 80/88/80 81/89/81 82/90/82
f 81/89/81 83/91/83 82/90/82
f 82/90/82 83/91/83 84/92/84
f 83/91/83 85/93/85 84/92/84
f 84/92/84 85/93/85 69/77/69
f 85/93/85 71/79/71 69/77/69
f 86/94/86 87/95/87 88/96/88
f 88/96/88 87/95/87 89/97/89
f 87/95/87 90/98/90 89/97/89
f 89/97/89 90/98/90 91/99/91
f 90/98/90 92/100/92 91/99/91
f 91/99/91 92/100/92 93/101/93
f 92/100/92 94/102/94 93/101/93
f 93/101/93 94/102/94 95/103/95
f 94/102/94 96/104/96 95/103/95
f 95/103/95 96/104/96 97/105/97
f 96/104/96 98/106/98 97/105/97
f 97/105/97 98/106/98 99/107/99
f 98/106/98 100/108/100 99/107/99
f 99/107/99 100/108/100 101/109/101
f 100/108/100 102/110/102 101/109/101
f 101/109/101 102/110/102 103/111/103
f 102/110/102 104/112/104 103/111/103
f 103/111/103 104/112/104 105/113/105
f 104/112/104 106/114/106 105/113/105
f 105/113/105 106/114/106 88/96/88
f 106/114/106 107/115/107 88/96/88
f 88/96/88 107/115/107 86/94/86
f 107/115/107 108/116/108 86/94/86
f 86/94/86 108/116/108 100/108/100
f 108/116/108 109/117/109 100/108/100
f 100/108/100 109/117/109 102/110/102
f 110/118/110 111/119/111 112/120/112
f 112/120/112 111/119/111 113/121/113
f 111/119/111 114/122/114 113/121/113
f 113/121/113 114/122/114 115/123/115
f 114/122/114 116/124/116 115/123/115
f 115/123/115 116/124/116 117/125/117
f 116/124/116 118/126/118 117/125/117
f 117/125/117 118/126/118 119/127/119
f 118/126/118 120/128/120 119/127/119
f 119/127/119 120/128/120 110/118/110
f 120/128/120 121/129/121 110/118/110
f 110/118/110 121/129/121 111/119/111
f 121/129/121 122/130/122 111/119/111
f 111/119/111 122/130/122 123/131/123
f 122/130/122 124/132/124 123/131/123
f 123/131/123 124/132/124 125/133/125
f 124/132/124 126/134/126 125/133/125
f 125/133/125 126/134/126 127/135/127
f 126/134/126 128/136/128 127/135/127
f 127/135/127 128/136/128 129/137/129
f 128/136/128 130/138/130 129/137/129
f 129/137/129 130/138/130 118/126/118
f 130/138/130 131/139/131 118/126/118
f 118/126/118 131/139/131 120/128/120
f 131/139/131 121/129/121 120/128/120
f 132/140/132 133/141/133 134/142/134
f 134/142/134 133/141/133 135/143/135
f 133/141/133 136/144/136 135/143/135
f 135/143/135 136/144/136 137/145/137
f 136/144/136 138/146/138 137/145/137
f 137/145/137 138/146/138 139/147/139
f 138/146/138 140/148/140 139/147/139
f 139/147/139 140/148/140 141/149/141
f 140/148/140 142/150/142 141/149/141
f 141/149/141 142/150/142 143/151/143
f 142/150/142 144/152/144 143/151/143
f 143/151/143 144/152/144 145/153/145
f 144/152/144 146/154/146 145/153/145
f 145/153/145 146/154/146 147/155/147
f 146/154/146 148/156/148 147/155/147
f 147/155/147 148/156/148 149/157/149
f 148/156/148 150/158/150 149/157/149
f 149/157/149 150/158/150 133/141/133
f 150/158/150 136/144/136 133/141/133
f 118/126/118 151/159/151 129/137/129
f 129/137/129 151/159/151 127/135/127
f 151/159/151 152/160/152 127/135/127
f 127/135/127 152/160/152 125/133/125
f 152/160/152 114/122/114 125/133/125
f 125/133/125 114/122/114 123/131/123
f 114/122/114 111/119/111 123/131/123
f 72/80/72 71/79/71 73/81/73
f 73/81/73 71/79/71 75/83/75
f 71/79/71 153/161/153 75/83/75
f 75/83/75 153/161/153 77/85/77
f 153/161/153 154/162/154 77/85/77
f 77/85/77 154/162/154 79/87/79
f 154/162/154 81/89/81 79/87/79
f 74/82/74 155/163/155 62/70/62
f 62/70/62 155/163/155 65/73/65
f 155/163/155 156/164/156 65/73/65
f 65/73/65 156/164/156 67/75/67
f 156/164/156 157/165/157 67/75/67
f 67/75/67 157/165/157 84/92/84
f 157/165/157 82/90/82 84/92/84
f 101/109/101 158/166/158 99/107/99
f 99/107/99 158/166/158 97/105/97
f 158/166/158 159/167/159 97/105/97
f 97/105/97 159/167/159 95/103/95
f 159/167/159 160/168/160 95/103/95
f 95/103/95 160/168/160 93/101/93
f 160/168/160 91/99/91 93/101/93
f 161/169/161 137/145/137 162/170/162
f 162/170/162 137/145/137 163/171/163
f 137/145/137 164/172/164 163/171/163
f 163/171/163 164/172/164 165/173/165
f 164/172/164 141/149/141 165/173/165
f 165/173/165 141/149/141 143/151/143
f 74/82/74 76/84/76 155/163/155
f 155/163/155 76/84/76 156/164/156
f 76/84/76 78/86/78 156/164/156
f 156/164/156 78/86/78 157/165/157
f 78/86/78 80/88/80 157/165/157
f 157/165/157 80/88/80 82/90/82
f 100/108/100 98/106/98 86/94/86
f 86/94/86 98/106/98 166/174/166
f 98/106/98 96/104/96 166/174/166
f 166/174/166 96/104/96 167/175/167
f 96/104/96 94/102/94 167/175/167
f 167/175/167 94/102/94 92/100/92
f 91/99/91 160/168/160 89/97/89
f 89/97/89 160/168/160 105/113/105
f 160/168/160 159/167/159 105/113/105
f 105/113/105 159/167/159 168/176/168
f 159/167/159 158/166/158 168/176/168
f 168/176/168 158/166/158 101/109/101
f 145/153/145 169/177/169 165/173/165
f 165/173/165 169/177/169 170/178/170
f 169/177/169 147/155/147 170/178/170
f 170/178/170 147/155/147 171/179/171
f 147/155/147 132/140/132 171/179/171
f 138/146/138 172/180/172 140/148/140
f 140/148/140 172/180/172 142/150/142
f 172/180/172 148/156/148 142/150/142
f 142/150/142 148/156/148 144/152/144
f 148/156/148 146/154/146 144/152/144
f 126/134/126 124/132/124 128/136/128
f 128/136/128 124/132/124 130/138/130
f 124/132/124 173/181/173 130/138/130
f 130/138/130 173/181/173 131/139/131
f 173/181/173 121/129/121 131/139/131
f 43/51/43 41/49/41 54/62/54
f 54/62/54 41/49/41 174/182/174
f 41/49/41 38/46/38 174/182/174
f 174/182/174 38/46/38 50/58/50
f 71/79/71 85/93/85 153/161/153
f 153/161/153 85/93/85 175/183/175
f 85/93/85 83/91/83 175/183/175
f 175/183/175 83/91/83 81/89/81
f 92/100/92 176/184/176 167/175/167
f 167/175/167 176/184/176 166/174/166
f 176/184/176 87/95/87 166/174/166
f 166/174/166 87/95/87 86/94/86
f 132/140/132 177/185/177 133/141/133
f 133/141/133 177/185/177 149/157/149
f 177/185/177 147/155/147 149/157/149
f 136/144/136 150/158/150 138/146/138
f 138/146/138 150/158/150 172/180/172
f 150/158/150 148/156/148 172/180/172
f 118/126/118 116/124/116 151/159/151
f 151/159/151 116/124/116 152/160/152
f 116/124/116 114/122/114 152/160/152
f 56/64/56 60/68/60 57/65/57
f 57/65/57 60/68/60 58/66/58
f 60/68/60 59/67/59 58/66/58
f 170/178/170 178/186/178 165/173/165
f 165/173/165 178/186/178 163/171/163
f 137/145/137 161/169/161 135/143/135
f 135/143/135 161/169/161 134/142/134
f 141/149/141 164/172/164 139/147/139
f 139/147/139 164/172/164 137/145/137
f 121/129/121 173/181/173 122/130/122
f 122/130/122 173/181/173 124/132/124
f 48/56/48 47/55/47 49/57/49
f 49/57/49 47/55/47 51/59/51
f 50/58/50 52/60/52 174/182/174
f 174/182/174 52/60/52 54/62/54
f 153/161/153 175/183/175 154/162/154
f 154/162/154 175/183/175 81/89/81
f 87/95/87 176/184/176 90/98/90
f 90/98/90 176/184/176 92/100/92
f 101/109/101 103/111/103 168/176/168
f 168/176/168 103/111/103 105/113/105
f 145/153/145 165/173/165 143/151/143
f 132/140/132 147/155/147 177/185/177
f 145/153/145 147/155/147 169/177/169
f 69/77/69 67/75/67 84/92/84
f 89/97/89 105/113/105 88/96/88
